<svg width="141" height="42" viewBox="0 0 141 42" fill="none" xmlns="http://www.w3.org/2000/svg">
<mask id="path-1-outside-1_72_133" maskUnits="userSpaceOnUse" x="46" y="10" width="22" height="26" fill="black">
<rect fill="white" x="46" y="10" width="22" height="26"/>
<path d="M57.168 34.384C54.1173 34.384 51.7813 33.7013 50.16 32.336C48.56 30.9493 47.76 28.912 47.76 26.224V19.376C47.76 16.688 48.56 14.6613 50.16 13.296C51.7813 11.9093 54.1173 11.216 57.168 11.216C59.3653 11.216 61.1573 11.568 62.544 12.272C63.952 12.976 65.0613 14.0213 65.872 15.408L62.448 17.744C61.7867 16.6773 61.0827 15.9093 60.336 15.44C59.5893 14.9707 58.5333 14.736 57.168 14.736C55.4613 14.736 54.2133 15.1307 53.424 15.92C52.656 16.688 52.272 17.84 52.272 19.376V26.224C52.272 27.76 52.656 28.9227 53.424 29.712C54.2133 30.48 55.4613 30.864 57.168 30.864C58.6613 30.864 59.792 30.6187 60.56 30.128C61.3493 29.616 61.744 28.88 61.744 27.92V26.928C61.744 25.6053 61.136 24.944 59.92 24.944H56.272V21.424H61.2C62.9067 21.424 64.1653 21.8187 64.976 22.608C65.7867 23.3973 66.192 24.624 66.192 26.288V28.24C66.192 30.16 65.3813 31.664 63.76 32.752C62.1387 33.84 59.9413 34.384 57.168 34.384Z"/>
</mask>
<path d="M57.168 34.384C54.1173 34.384 51.7813 33.7013 50.16 32.336C48.56 30.9493 47.76 28.912 47.76 26.224V19.376C47.76 16.688 48.56 14.6613 50.16 13.296C51.7813 11.9093 54.1173 11.216 57.168 11.216C59.3653 11.216 61.1573 11.568 62.544 12.272C63.952 12.976 65.0613 14.0213 65.872 15.408L62.448 17.744C61.7867 16.6773 61.0827 15.9093 60.336 15.44C59.5893 14.9707 58.5333 14.736 57.168 14.736C55.4613 14.736 54.2133 15.1307 53.424 15.92C52.656 16.688 52.272 17.84 52.272 19.376V26.224C52.272 27.76 52.656 28.9227 53.424 29.712C54.2133 30.48 55.4613 30.864 57.168 30.864C58.6613 30.864 59.792 30.6187 60.56 30.128C61.3493 29.616 61.744 28.88 61.744 27.92V26.928C61.744 25.6053 61.136 24.944 59.92 24.944H56.272V21.424H61.2C62.9067 21.424 64.1653 21.8187 64.976 22.608C65.7867 23.3973 66.192 24.624 66.192 26.288V28.24C66.192 30.16 65.3813 31.664 63.76 32.752C62.1387 33.84 59.9413 34.384 57.168 34.384Z" fill="black"/>
<path d="M50.16 32.336L49.5051 33.0917L49.5104 33.0963L49.5159 33.1009L50.16 32.336ZM50.16 13.296L50.8091 14.0567L50.81 14.056L50.16 13.296ZM62.544 12.272L62.0913 13.1637L62.0968 13.1664L62.544 12.272ZM65.872 15.408L66.4356 16.2341L67.206 15.7084L66.7353 14.9033L65.872 15.408ZM62.448 17.744L61.5981 18.2709L62.1486 19.1588L63.0116 18.5701L62.448 17.744ZM53.424 15.92L54.1311 16.6271L54.1311 16.6271L53.424 15.92ZM53.424 29.712L52.7073 30.4094L52.7168 30.4192L52.7266 30.4287L53.424 29.712ZM60.56 30.128L61.0984 30.9707L61.1042 30.967L60.56 30.128ZM56.272 24.944H55.272V25.944H56.272V24.944ZM56.272 21.424V20.424H55.272V21.424H56.272ZM64.976 22.608L65.6736 21.8915L65.6736 21.8915L64.976 22.608ZM63.76 32.752L63.2028 31.9216L63.2028 31.9216L63.76 32.752ZM57.168 33.384C54.2516 33.384 52.1804 32.73 50.8041 31.5711L49.5159 33.1009C51.3823 34.6726 53.9831 35.384 57.168 35.384V33.384ZM50.8149 31.5803C49.4905 30.4325 48.76 28.7061 48.76 26.224H46.76C46.76 29.1179 47.6295 31.4662 49.5051 33.0917L50.8149 31.5803ZM48.76 26.224V19.376H46.76V26.224H48.76ZM48.76 19.376C48.76 16.8932 49.4907 15.1817 50.8091 14.0567L49.5109 12.5353C47.6293 14.1409 46.76 16.4828 46.76 19.376H48.76ZM50.81 14.056C52.186 12.8791 54.2548 12.216 57.168 12.216V10.216C53.9799 10.216 51.3767 10.9395 49.51 12.536L50.81 14.056ZM57.168 12.216C59.2689 12.216 60.8907 12.5541 62.0913 13.1637L62.9967 11.3803C61.424 10.5819 59.4618 10.216 57.168 10.216V12.216ZM62.0968 13.1664C63.3275 13.7818 64.2939 14.6899 65.0087 15.9127L66.7353 14.9033C65.8288 13.3527 64.5765 12.1702 62.9912 11.3776L62.0968 13.1664ZM65.3084 14.5819L61.8844 16.9179L63.0116 18.5701L66.4356 16.2341L65.3084 14.5819ZM63.2979 17.2171C62.588 16.0721 61.7864 15.1705 60.8682 14.5934L59.8038 16.2866C60.379 16.6481 60.9853 17.2826 61.5981 18.2709L63.2979 17.2171ZM60.8682 14.5934C59.8972 13.983 58.6265 13.736 57.168 13.736V15.736C58.4401 15.736 59.2815 15.9583 59.8038 16.2866L60.8682 14.5934ZM57.168 13.736C55.3337 13.736 53.7726 14.1571 52.7169 15.2129L54.1311 16.6271C54.654 16.1042 55.589 15.736 57.168 15.736V13.736ZM52.7169 15.2129C51.6952 16.2346 51.272 17.6859 51.272 19.376H53.272C53.272 17.9941 53.6168 17.1414 54.1311 16.6271L52.7169 15.2129ZM51.272 19.376V26.224H53.272V19.376H51.272ZM51.272 26.224C51.272 27.9164 51.6961 29.3701 52.7073 30.4094L54.1407 29.0146C53.6159 28.4752 53.272 27.6036 53.272 26.224H51.272ZM52.7266 30.4287C53.783 31.4565 55.3399 31.864 57.168 31.864V29.864C55.5827 29.864 54.6437 29.5035 54.1214 28.9953L52.7266 30.4287ZM57.168 31.864C58.7423 31.864 60.097 31.6105 61.0984 30.9707L60.0216 29.2853C59.487 29.6269 58.5804 29.864 57.168 29.864V31.864ZM61.1042 30.967C62.1847 30.2661 62.744 29.2105 62.744 27.92H60.744C60.744 28.5495 60.514 28.9659 60.0158 29.289L61.1042 30.967ZM62.744 27.92V26.928H60.744V27.92H62.744ZM62.744 26.928C62.744 26.1324 62.5629 25.3492 62.0242 24.7632C61.4708 24.1613 60.7048 23.944 59.92 23.944V25.944C60.3512 25.944 60.4972 26.0574 60.5518 26.1168C60.6211 26.1921 60.744 26.4009 60.744 26.928H62.744ZM59.92 23.944H56.272V25.944H59.92V23.944ZM57.272 24.944V21.424H55.272V24.944H57.272ZM56.272 22.424H61.2V20.424H56.272V22.424ZM61.2 22.424C62.7762 22.424 63.7305 22.791 64.2784 23.3245L65.6736 21.8915C64.6002 20.8463 63.0372 20.424 61.2 20.424V22.424ZM64.2784 23.3245C64.8205 23.8523 65.192 24.7668 65.192 26.288H67.192C67.192 24.4812 66.7528 22.9423 65.6736 21.8915L64.2784 23.3245ZM65.192 26.288V28.24H67.192V26.288H65.192ZM65.192 28.24C65.192 29.82 64.553 31.0156 63.2028 31.9216L64.3172 33.5824C66.2096 32.3124 67.192 30.5 67.192 28.24H65.192ZM63.2028 31.9216C61.802 32.8616 59.8229 33.384 57.168 33.384V35.384C60.0598 35.384 62.4753 34.8184 64.3172 33.5824L63.2028 31.9216Z" fill="black" mask="url(#path-1-outside-1_72_133)"/>
<mask id="path-3-outside-2_72_133" maskUnits="userSpaceOnUse" x="98" y="10" width="43" height="25" fill="black">
<rect fill="white" x="98" y="10" width="43" height="25"/>
<path d="M99.92 18.576C99.92 16.3147 100.539 14.5867 101.776 13.392C103.013 12.1973 105.051 11.6 107.888 11.6H115.376V15.12H107.888C106.715 15.12 105.84 15.3973 105.264 15.952C104.709 16.5067 104.432 17.3813 104.432 18.576V21.68H113.968V25.2H104.432V34H99.92V18.576ZM126.74 24.4L119.38 11.6H124.404L129.108 20.272L133.716 11.6H138.772L131.252 24.4V34H126.74V24.4Z"/>
</mask>
<path d="M99.92 18.576C99.92 16.3147 100.539 14.5867 101.776 13.392C103.013 12.1973 105.051 11.6 107.888 11.6H115.376V15.12H107.888C106.715 15.12 105.84 15.3973 105.264 15.952C104.709 16.5067 104.432 17.3813 104.432 18.576V21.68H113.968V25.2H104.432V34H99.92V18.576ZM126.74 24.4L119.38 11.6H124.404L129.108 20.272L133.716 11.6H138.772L131.252 24.4V34H126.74V24.4Z" fill="black"/>
<path d="M101.776 13.392L101.081 12.6726L101.081 12.6726L101.776 13.392ZM115.376 11.6H116.376V10.6H115.376V11.6ZM115.376 15.12V16.12H116.376V15.12H115.376ZM105.264 15.952L104.57 15.2317L104.564 15.2382L104.557 15.2449L105.264 15.952ZM104.432 21.68H103.432V22.68H104.432V21.68ZM113.968 21.68H114.968V20.68H113.968V21.68ZM113.968 25.2V26.2H114.968V25.2H113.968ZM104.432 25.2V24.2H103.432V25.2H104.432ZM104.432 34V35H105.432V34H104.432ZM99.92 34H98.92V35H99.92V34ZM100.92 18.576C100.92 16.4968 101.484 15.0636 102.471 14.1114L101.081 12.6726C99.5929 14.1098 98.92 16.1325 98.92 18.576H100.92ZM102.471 14.1114C103.432 13.1831 105.151 12.6 107.888 12.6V10.6C104.951 10.6 102.595 11.2115 101.081 12.6726L102.471 14.1114ZM107.888 12.6H115.376V10.6H107.888V12.6ZM114.376 11.6V15.12H116.376V11.6H114.376ZM115.376 14.12H107.888V16.12H115.376V14.12ZM107.888 14.12C106.576 14.12 105.404 14.4288 104.57 15.2317L105.958 16.6723C106.276 16.3658 106.854 16.12 107.888 16.12V14.12ZM104.557 15.2449C103.736 16.0654 103.432 17.2524 103.432 18.576H105.432C105.432 17.5103 105.682 16.948 105.971 16.6591L104.557 15.2449ZM103.432 18.576V21.68H105.432V18.576H103.432ZM104.432 22.68H113.968V20.68H104.432V22.68ZM112.968 21.68V25.2H114.968V21.68H112.968ZM113.968 24.2H104.432V26.2H113.968V24.2ZM103.432 25.2V34H105.432V25.2H103.432ZM104.432 33H99.92V35H104.432V33ZM100.92 34V18.576H98.92V34H100.92ZM126.74 24.4H127.74V24.133L127.607 23.9015L126.74 24.4ZM119.38 11.6V10.6H117.651L118.513 12.0985L119.38 11.6ZM124.404 11.6L125.283 11.1232L124.999 10.6H124.404V11.6ZM129.108 20.272L128.229 20.7488L129.117 22.386L129.991 20.7412L129.108 20.272ZM133.716 11.6V10.6H133.115L132.833 11.1308L133.716 11.6ZM138.772 11.6L139.634 12.1065L140.519 10.6H138.772V11.6ZM131.252 24.4L130.39 23.8935L130.252 24.128V24.4H131.252ZM131.252 34V35H132.252V34H131.252ZM126.74 34H125.74V35H126.74V34ZM127.607 23.9015L120.247 11.1015L118.513 12.0985L125.873 24.8985L127.607 23.9015ZM119.38 12.6H124.404V10.6H119.38V12.6ZM123.525 12.0768L128.229 20.7488L129.987 19.7952L125.283 11.1232L123.525 12.0768ZM129.991 20.7412L134.599 12.0692L132.833 11.1308L128.225 19.8028L129.991 20.7412ZM133.716 12.6H138.772V10.6H133.716V12.6ZM137.91 11.0934L130.39 23.8935L132.114 24.9065L139.634 12.1065L137.91 11.0934ZM130.252 24.4V34H132.252V24.4H130.252ZM131.252 33H126.74V35H131.252V33ZM127.74 34V24.4H125.74V34H127.74Z" fill="black" mask="url(#path-3-outside-2_72_133)"/>
<path d="M20.5 26.75H33.6875M24.1888 14.1725L28.2637 26.715M37.29 13.795L26.6212 21.5463M41.6987 26.1375L31.03 18.3862M31.3212 34.145L35.3975 21.6025M19.75 23C19.75 24.4774 20.041 25.9403 20.6064 27.3052C21.1717 28.6701 22.0004 29.9103 23.045 30.9549C24.0897 31.9996 25.3299 32.8283 26.6948 33.3936C28.0597 33.959 29.5226 34.25 31 34.25C32.4774 34.25 33.9403 33.959 35.3052 33.3936C36.6701 32.8283 37.9103 31.9996 38.9549 30.9549C39.9996 29.9103 40.8283 28.6701 41.3936 27.3052C41.959 25.9403 42.25 24.4774 42.25 23C42.25 21.5226 41.959 20.0597 41.3936 18.6948C40.8283 17.3299 39.9996 16.0897 38.9549 15.045C37.9103 14.0004 36.6701 13.1717 35.3052 12.6064C33.9403 12.041 32.4774 11.75 31 11.75C29.5226 11.75 28.0597 12.041 26.6948 12.6064C25.3299 13.1717 24.0897 14.0004 23.045 15.045C22.0004 16.0897 21.1717 17.3299 20.6064 18.6948C20.041 20.0597 19.75 21.5226 19.75 23Z" stroke="url(#paint0_linear_72_133)" stroke-width="4" stroke-linecap="round" stroke-linejoin="round"/>
<path d="M72.5 26.75H85.6875M76.1888 14.1725L80.2637 26.715M89.29 13.795L78.6212 21.5463M93.6987 26.1375L83.03 18.3862M83.3212 34.145L87.3975 21.6025M71.75 23C71.75 24.4774 72.041 25.9403 72.6064 27.3052C73.1717 28.6701 74.0004 29.9103 75.045 30.9549C76.0897 31.9996 77.3299 32.8283 78.6948 33.3936C80.0597 33.959 81.5226 34.25 83 34.25C84.4774 34.25 85.9403 33.959 87.3052 33.3936C88.6701 32.8283 89.9103 31.9996 90.9549 30.9549C91.9996 29.9103 92.8283 28.6701 93.3936 27.3052C93.959 25.9403 94.25 24.4774 94.25 23C94.25 21.5226 93.959 20.0597 93.3936 18.6948C92.8283 17.3299 91.9996 16.0897 90.9549 15.045C89.9103 14.0004 88.6701 13.1717 87.3052 12.6064C85.9403 12.041 84.4774 11.75 83 11.75C81.5226 11.75 80.0597 12.041 78.6948 12.6064C77.3299 13.1717 76.0897 14.0004 75.045 15.045C74.0004 16.0897 73.1717 17.3299 72.6064 18.6948C72.041 20.0597 71.75 21.5226 71.75 23Z" stroke="url(#paint1_linear_72_133)" stroke-width="4" stroke-linecap="round" stroke-linejoin="round"/>
<mask id="path-7-outside-3_72_133" maskUnits="userSpaceOnUse" x="0" y="10" width="18" height="25" fill="black">
<rect fill="white" y="10" width="18" height="25"/>
<path d="M9.568 34C6.83733 34 4.87467 33.4027 3.68 32.208C2.50667 31.0133 1.92 29.2853 1.92 27.024V11.6H6.432V27.024C6.432 28.1973 6.688 29.072 7.2 29.648C7.712 30.2027 8.50133 30.48 9.568 30.48H16.736V34H9.568Z"/>
</mask>
<path d="M9.568 34C6.83733 34 4.87467 33.4027 3.68 32.208C2.50667 31.0133 1.92 29.2853 1.92 27.024V11.6H6.432V27.024C6.432 28.1973 6.688 29.072 7.2 29.648C7.712 30.2027 8.50133 30.48 9.568 30.48H16.736V34H9.568Z" fill="black"/>
<path d="M3.68 32.208L2.96652 32.9087L2.97289 32.9151L3.68 32.208ZM1.92 11.6V10.6H0.92V11.6H1.92ZM6.432 11.6H7.432V10.6H6.432V11.6ZM7.2 29.648L6.45259 30.3124L6.45883 30.3194L6.4652 30.3263L7.2 29.648ZM16.736 30.48H17.736V29.48H16.736V30.48ZM16.736 34V35H17.736V34H16.736ZM9.568 33C6.94594 33 5.30679 32.4206 4.38711 31.5009L2.97289 32.9151C4.44255 34.3848 6.72872 35 9.568 35V33ZM4.39345 31.5073C3.46062 30.5575 2.92 29.1174 2.92 27.024H0.92C0.92 29.4532 1.55271 31.4692 2.96655 32.9087L4.39345 31.5073ZM2.92 27.024V11.6H0.92V27.024H2.92ZM1.92 12.6H6.432V10.6H1.92V12.6ZM5.432 11.6V27.024H7.432V11.6H5.432ZM5.432 27.024C5.432 28.3187 5.71117 29.4783 6.45259 30.3124L7.94741 28.9836C7.66483 28.6657 7.432 28.076 7.432 27.024H5.432ZM6.4652 30.3263C7.23398 31.1591 8.34032 31.48 9.568 31.48V29.48C8.66235 29.48 8.19002 29.2462 7.9348 28.9697L6.4652 30.3263ZM9.568 31.48H16.736V29.48H9.568V31.48ZM15.736 30.48V34H17.736V30.48H15.736ZM16.736 33H9.568V35H16.736V33Z" fill="black" mask="url(#path-7-outside-3_72_133)"/>
<defs>
<linearGradient id="paint0_linear_72_133" x1="31" y1="11.75" x2="31" y2="34.25" gradientUnits="userSpaceOnUse">
<stop stop-color="#FF4081"/>
<stop offset="1" stop-color="#6CE4C0"/>
</linearGradient>
<linearGradient id="paint1_linear_72_133" x1="83" y1="11.75" x2="83" y2="34.25" gradientUnits="userSpaceOnUse">
<stop stop-color="#FF4081"/>
<stop offset="1" stop-color="#6CE4C0"/>
</linearGradient>
</defs>
</svg>
